<?xml version="1.0" encoding="UTF-8"?>
<svg id="Layer_2" xmlns="http://www.w3.org/2000/svg" viewBox="0 0 591.71 369.79">
  <defs>
    <style>
      .cls-1 {
        fill: #fff;
      }
    </style>
  </defs>
  <g id="Layer_9">
    <g>
      <path class="cls-1" d="M91.21,172.54v194.17c0,1.7-1.38,3.08-3.08,3.08h-26.59c-1.7,0-3.08-1.38-3.08-3.08V71.55c0-2.8,3.54-4.02,5.26-1.81l117.88,150.63c5.5,7.02,16.13,7,21.6-.04l116.79-150.51c1.72-2.22,5.27-1,5.27,1.81v295.1c0,1.7-1.38,3.08-3.08,3.08h-26.59c-1.7,0-3.08-1.38-3.08-3.08v-192.73c0-4.76-6.02-6.84-8.96-3.09l-83.99,107.34c-3.62,4.63-10.63,4.63-14.26,0l-85.13-108.78c-2.94-3.75-8.96-1.68-8.96,3.09Z"/>
      <path class="cls-1" d="M310.11,0h70.73c1.7,0,3.08,1.38,3.08,3.08v330.88c0,1.7,1.38,3.08,3.08,3.08h201.55c1.7,0,3.08,1.38,3.08,3.08v26.59c0,1.7-1.38,3.08-3.08,3.08h-228.03c-5.16,0-9.35-4.19-9.35-9.35V38.58c0-3.22-2.61-5.83-5.83-5.83h-22.03c-3.78,0-7.35,1.74-9.68,4.72l-114.07,145.77c-3.62,4.63-10.63,4.63-14.26,0L71.22,37.47c-2.33-2.98-5.9-4.72-9.68-4.72h-22.96c-3.22,0-5.83,2.61-5.83,5.83v328.13c0,1.7-1.38,3.08-3.08,3.08H3.08c-1.7,0-3.08-1.38-3.08-3.08V3.08C0,1.38,1.38,0,3.08,0h71.66c5.52,0,10.73,2.54,14.14,6.89l92.77,118.54c5.48,7,16.08,7,21.56,0L295.97,6.89c3.4-4.35,8.62-6.89,14.14-6.89Z"/>
      <path class="cls-1" d="M591.71,283.12v26.59c0,1.7-1.38,3.08-3.08,3.08h-168.1c-5.16,0-9.35-4.19-9.35-9.35V3.08c0-1.7,1.38-3.08,3.08-3.08h26.59c1.7,0,3.08,1.38,3.08,3.08v273.88c0,1.7,1.38,3.08,3.08,3.08h141.62c1.7,0,3.08,1.38,3.08,3.08Z"/>
    </g>
  </g>
</svg>